<?xml version="1.0" encoding="UTF-8"?>
<svg xmlns="http://www.w3.org/2000/svg" viewBox="-0.28800000000000026 4.2133333333333365 152.64000000000001 46.61866666666667">
  <path fill="#030711" d="M14.30 0.43L14.30 0.43Q10.51 0.43 7.80-1.03Q5.09-2.50 3.60-5.21Q2.11-7.92 2.11-11.62L2.11-11.62Q2.11-15.26 3.58-18Q5.04-20.74 7.61-22.27Q10.18-23.81 13.49-23.81L13.49-23.81Q15.84-23.81 17.74-23.02Q19.63-22.22 20.98-20.74Q22.32-19.25 23.02-17.11Q23.71-14.98 23.71-12.29L23.71-12.29Q23.71-11.52 23.26-11.11Q22.80-10.70 21.94-10.70L21.94-10.70L5.52-10.70L5.52-13.49L20.83-13.49L20.02-12.82Q20.02-15.31 19.27-17.06Q18.53-18.82 17.11-19.73Q15.70-20.64 13.58-20.64L13.58-20.64Q11.28-20.64 9.65-19.56Q8.02-18.48 7.15-16.54Q6.29-14.59 6.29-12.05L6.29-12.05L6.29-11.76Q6.29-7.44 8.35-5.23Q10.42-3.02 14.30-3.02L14.30-3.02Q15.84-3.02 17.45-3.41Q19.06-3.79 20.54-4.80L20.54-4.80Q21.26-5.23 21.86-5.21Q22.46-5.18 22.85-4.82Q23.23-4.46 23.33-3.96Q23.42-3.46 23.18-2.88Q22.94-2.30 22.27-1.87L22.27-1.87Q20.69-0.77 18.50-0.17Q16.32 0.43 14.30 0.43Z" transform="translate(0, 48)"/>
  <path fill="#030711" d="M10.85 0.43L10.85 0.43Q7.25 0.43 5.38-1.70Q3.50-3.84 3.50-7.87L3.50-7.87L3.50-31.97Q3.50-33.07 4.08-33.62Q4.66-34.18 5.66-34.18L5.66-34.18Q6.72-34.18 7.30-33.62Q7.87-33.07 7.87-31.97L7.87-31.97L7.87-8.21Q7.87-5.71 8.90-4.49Q9.94-3.26 11.86-3.26L11.86-3.26Q12.29-3.26 12.62-3.29Q12.96-3.31 13.30-3.36L13.30-3.36Q13.82-3.41 14.06-3.07Q14.30-2.74 14.30-1.73L14.30-1.73Q14.30-0.82 13.90-0.31Q13.49 0.19 12.58 0.34L12.58 0.34Q12.14 0.38 11.71 0.41Q11.28 0.43 10.85 0.43Z" transform="translate(25.632, 48)"/>
  <path fill="#030711" d="M14.30 0.43L14.30 0.43Q10.51 0.43 7.80-1.03Q5.09-2.50 3.60-5.21Q2.11-7.92 2.11-11.62L2.11-11.62Q2.11-15.26 3.58-18Q5.04-20.74 7.61-22.27Q10.18-23.81 13.49-23.81L13.49-23.81Q15.84-23.81 17.74-23.02Q19.63-22.22 20.98-20.74Q22.32-19.25 23.02-17.11Q23.71-14.98 23.71-12.29L23.71-12.29Q23.71-11.52 23.26-11.11Q22.80-10.70 21.94-10.70L21.94-10.70L5.52-10.70L5.52-13.49L20.83-13.49L20.02-12.82Q20.02-15.31 19.27-17.06Q18.53-18.82 17.11-19.73Q15.70-20.64 13.58-20.64L13.58-20.64Q11.28-20.64 9.65-19.56Q8.02-18.48 7.15-16.54Q6.29-14.59 6.29-12.05L6.29-12.05L6.29-11.76Q6.29-7.44 8.35-5.23Q10.42-3.02 14.30-3.02L14.30-3.02Q15.84-3.02 17.45-3.41Q19.06-3.79 20.54-4.80L20.54-4.80Q21.26-5.23 21.86-5.21Q22.46-5.18 22.85-4.82Q23.23-4.46 23.33-3.96Q23.42-3.46 23.18-2.88Q22.94-2.30 22.27-1.87L22.27-1.87Q20.69-0.77 18.50-0.17Q16.32 0.43 14.30 0.43Z" transform="translate(40.08, 48)"/>
  <path fill="#030711" d="M5.66 0.34L5.66 0.34Q4.66 0.34 4.08-0.24Q3.50-0.82 3.50-1.92L3.50-1.92L3.50-21.50Q3.50-22.61 4.08-23.16Q4.66-23.71 5.66-23.71L5.66-23.71Q6.67-23.71 7.22-23.16Q7.78-22.61 7.78-21.50L7.78-21.50L7.78-17.57L7.25-18.29Q8.26-21.02 10.54-22.42Q12.82-23.81 15.74-23.81L15.74-23.81Q18.58-23.81 20.40-22.80Q22.22-21.79 23.14-19.73Q24.05-17.66 24.05-14.50L24.05-14.50L24.05-1.92Q24.05-0.82 23.50-0.24Q22.94 0.34 21.89 0.34L21.89 0.34Q20.83 0.34 20.26-0.24Q19.68-0.82 19.68-1.92L19.68-1.92L19.68-14.26Q19.68-17.38 18.48-18.82Q17.28-20.26 14.64-20.26L14.64-20.26Q11.57-20.26 9.72-18.36Q7.87-16.46 7.87-13.25L7.87-13.25L7.87-1.92Q7.87 0.34 5.66 0.34Z" transform="translate(65.712, 48)"/>
  <path fill="#030711" d="M5.66 0.34L5.66 0.34Q4.66 0.34 4.08-0.24Q3.50-0.82 3.50-1.92L3.50-1.92L3.50-31.97Q3.50-33.07 4.08-33.62Q4.66-34.18 5.66-34.18L5.66-34.18Q6.72-34.18 7.30-33.62Q7.87-33.07 7.87-31.97L7.87-31.97L7.87-13.06L7.97-13.06L17.38-22.22Q18.10-22.94 18.67-23.33Q19.25-23.71 20.16-23.71L20.16-23.71Q21.07-23.71 21.55-23.26Q22.03-22.80 22.03-22.10Q22.03-21.41 21.36-20.74L21.36-20.74L11.38-11.04L11.38-13.20L22.27-2.69Q22.94-2.02 22.92-1.30Q22.90-0.58 22.39-0.12Q21.89 0.34 21.07 0.34L21.07 0.34Q20.11 0.34 19.51-0.05Q18.91-0.43 18.14-1.25L18.14-1.25L7.97-10.85L7.87-10.85L7.87-1.92Q7.87 0.34 5.66 0.34Z" transform="translate(93.168, 48)"/>
  <path fill="#030711" d="M5.66 0.24L5.66 0.24Q4.66 0.24 4.08-0.38Q3.50-1.01 3.50-2.11L3.50-2.11L3.50-21.26Q3.50-22.42 4.08-23.02Q4.66-23.62 5.66-23.62L5.66-23.62Q6.72-23.62 7.30-23.02Q7.87-22.42 7.87-21.26L7.87-21.26L7.87-2.11Q7.87-1.01 7.32-0.38Q6.77 0.24 5.66 0.24Z" transform="translate(117.552, 48)"/>
  <path fill="#030711" d="M11.57 0.43L11.57 0.43Q9.41 0.43 7.22-0.07Q5.04-0.58 3.12-1.82L3.12-1.82Q2.59-2.16 2.38-2.66Q2.16-3.17 2.23-3.67Q2.30-4.18 2.64-4.56Q2.98-4.94 3.48-5.02Q3.98-5.09 4.56-4.75L4.56-4.75Q6.43-3.70 8.18-3.26Q9.94-2.83 11.66-2.83L11.66-2.83Q14.30-2.83 15.65-3.79Q16.99-4.75 16.99-6.34L16.99-6.34Q16.99-7.68 16.10-8.42Q15.22-9.17 13.34-9.55L13.34-9.55L8.88-10.46Q5.90-11.14 4.39-12.70Q2.88-14.26 2.88-16.70L2.88-16.70Q2.88-18.86 4.06-20.47Q5.23-22.08 7.34-22.94Q9.46-23.81 12.19-23.81L12.19-23.81Q14.30-23.81 16.20-23.26Q18.10-22.70 19.63-21.60L19.63-21.60Q20.21-21.26 20.38-20.76Q20.54-20.26 20.42-19.75Q20.30-19.25 19.97-18.91Q19.63-18.58 19.10-18.50Q18.58-18.43 17.95-18.77L17.95-18.77Q16.56-19.73 15.10-20.14Q13.63-20.54 12.19-20.54L12.19-20.54Q9.60-20.54 8.28-19.54Q6.96-18.53 6.96-16.90L6.96-16.90Q6.96-15.65 7.75-14.83Q8.54-14.02 10.27-13.63L10.27-13.63L14.74-12.72Q17.86-12.05 19.44-10.58Q21.02-9.12 21.02-6.62L21.02-6.62Q21.02-3.36 18.46-1.46Q15.89 0.43 11.57 0.43Z" transform="translate(128.928, 48)"/>
  <defs><mask id="wm-bubble">
    <rect x="0" y="0" width="9999" height="9999" fill="white"/>
    <circle cx="127.61173333333332" cy="12.480000000000004" r="2.0533333333333332" fill="black"/>
    <circle cx="133.4784" cy="12.480000000000004" r="2.0533333333333332" fill="black"/>
    <circle cx="139.34506666666667" cy="12.480000000000004" r="2.0533333333333332" fill="black"/>
  </mask></defs>
  <g mask="url(#wm-bubble)">
    <g transform="translate(120.27839999999999, 6.613333333333337) scale(0.7333333333333334)">
    <ellipse cx="18" cy="8" rx="16" ry="8" fill="#030711"/>
    <path d="M7,13 C6,16 4,19 4,19 C3,22 6,20 7,19 C9,17 15,15 19,13 Z" fill="#030711"/>
  </g>
  </g>
</svg>