<svg xmlns="http://www.w3.org/2000/svg" viewBox="0 0 460 140" role="img" aria-labelledby="title desc">
  <title id="title">Elenkis logo</title>
  <desc id="desc">The word elenkis with a small speech bubble above the letters.</desc>
  <defs>
    <filter id="softShadow" x="-20%" y="-20%" width="140%" height="140%">
      <feDropShadow dx="0" dy="6" stdDeviation="8" flood-color="#0F172A" flood-opacity="0.12"/>
    </filter>
  </defs>
  <rect x="0" y="0" width="460" height="140" rx="28" fill="none"/>
  <text x="28" y="105" font-family="Inter, Avenir Next, Segoe UI, Arial, sans-serif" font-size="100" letter-spacing="-7" font-weight="500" fill="#101827">elenkis</text>
  <g filter="url(#softShadow)" transform="translate(300,17)">
    <path d="M0 7 C0 2.8 3.2 0 7.6 0 H81.4 C99 0 113 12.6 113 28.1 C113 43.8 99 56.4 81.4 56.4 H44.5 L24.3 73.2 C22 75.1 18.4 73.5 18.4 70.5 V54.1 H7.6 C3.2 54.1 0 50.9 0 46.8 Z" fill="#101827"/>
    <circle cx="34" cy="28" r="6.5" fill="#FFFFFF"/>
    <circle cx="57" cy="28" r="6.5" fill="#FFFFFF"/>
    <circle cx="80" cy="28" r="6.5" fill="#FFFFFF"/>
  </g>
</svg>
